<svg xmlns="http://www.w3.org/2000/svg" viewBox="0 0 50.11 21"><defs><style>.cls-1{fill:silver;}</style></defs><title>battery</title><g id="Layer_2" data-name="Layer 2"><g id="Layer_5" data-name="Layer 5"><path class="cls-1" d="M47.4,21H8.71A2.71,2.71,0,0,1,6,18.29V2.71A2.71,2.71,0,0,1,8.71,0H47.4a2.71,2.71,0,0,1,2.71,2.71V18.29A2.71,2.71,0,0,1,47.4,21ZM8.71,2A.71.71,0,0,0,8,2.71V18.29a.71.71,0,0,0,.71.71H47.4a.71.71,0,0,0,.71-.71V2.71A.71.71,0,0,0,47.4,2Z"/><path class="cls-1" d="M8,16.25H2.78A2.79,2.79,0,0,1,0,13.47V7.2A2.79,2.79,0,0,1,2.78,4.42H8ZM2.78,6.42A.78.78,0,0,0,2,7.2v6.27a.78.78,0,0,0,.78.78H6V6.42Z"/><rect class="cls-1" x="20.44" y="1" width="2" height="19"/><rect class="cls-1" x="33.11" y="1" width="2" height="19"/></g></g></svg>