<?xml version="1.0" encoding="utf-8"?>
<!-- Generator: Adobe Illustrator 20.0.0, SVG Export Plug-In . SVG Version: 6.00 Build 0)  -->
<svg version="1.1" id="Layer_1" xmlns="http://www.w3.org/2000/svg" xmlns:xlink="http://www.w3.org/1999/xlink" x="0px" y="0px"
	 viewBox="0 0 37.274231 28.6304741" style="enable-background:new 0 0 37.274231 28.6304741;" xml:space="preserve">
<g>
	<g>
		<path d="M1,20.3216305c0-4.004261,0-8.0085239,0-12.0127859C1.0343751,8.1318045,1.0842329,7.9562044,1.1008428,7.777514
			c0.3436821-3.6973624,2.9472089-6.6941957,6.5489607-7.5298572C8.0344219,0.1584195,8.4220695,0.082238,8.8083115,0
			c1.0678024,0.0000001,2.1356068,0.0000001,3.2034092,0.0000002c0.107645,0.0358614,0.2128382,0.0903844,0.323288,0.1048898
			c4.1722469,0.547944,7.3181515,3.9662006,7.3799171,8.1553631c0.0595036,4.035677,0.0552979,8.0734949,0.0006218,12.1093092
			c-0.0517254,3.8179665-2.6861649,7.0364532-6.4010658,7.9670811c-0.4316969,0.1081486-0.8683853,0.1963711-1.3027611,0.2938309
			c-1.0678024,0-2.1356068,0-3.2034092,0c-0.1075754-0.035635-0.2126408-0.0867863-0.3230906-0.10466
			c-3.638227-0.5887203-6.0111198-2.6520424-7.111135-6.156498C1.1678692,21.7123432,1.1206125,21.0054741,1,20.3216305z
			 M9.4459515,25.9871769c0.0375986,0.0155964,0.0751963,0.0311909,0.1127958,0.0467911
			c2.0342255-2.4644833,4.0684519-4.9289646,6.1877594-7.496521c-1.4468079-1.398613-2.8456793-2.750886-4.2295723-4.0886793
			c1.3849497-1.4287844,2.7356052-2.8221893,4.107913-4.2379293c-2.0121288-2.32585-4.0411749-4.6712546-6.0702209-7.0166597
			c-0.0426111,0.0179925-0.0852213,0.035985-0.1278324,0.053977c0,2.9858057,0,5.971611,0,9.0402632
			c-1.1172934-1.1134176-2.1608996-2.1534042-3.1292453-3.118391c-0.432487,0.401021-0.8137975,0.7545891-1.3408117,1.2432594
			c1.3834224,1.3330898,2.7693801,2.668622,4.1176744,3.9678621c-1.3311954,1.3914623-2.6400619,2.7595844-3.9410181,4.1194401
			c0.3245759,0.3356705,0.677701,0.7008648,1.0521054,1.0880699c1.0613394-1.0345535,2.0966563-2.0437393,3.1319737-3.0529251
			c0.0428267,0.0262356,0.0856524,0.0524693,0.128479,0.0787067C9.4459515,19.7386837,9.4459515,22.8629303,9.4459515,25.9871769z"
			/>
		<path d="M11.1295881,16.531498c0.7563143,0.7448578,1.5092068,1.4863491,2.2959881,2.2612114
			c-0.7228689,0.8739586-1.468955,1.7759838-2.2959881,2.7758751C11.1295881,19.799181,11.1295881,18.1618919,11.1295881,16.531498z
			"/>
		<path d="M11.1465759,7.5228062c0.7996912,0.9259977,1.5373058,1.780117,2.2436037,2.59797
			c-0.7352571,0.7769222-1.4412031,1.522871-2.2436037,2.3707418C11.1465759,10.7760735,11.1465759,9.2016592,11.1465759,7.5228062z
			"/>
	</g>
</g>
<g>
	<path d="M35.5462837,7.2536421H25.4546509l-0.4115887,5.7883997l0.0951653,0.0321178
		c1.3287392-1.0444336,3.195158-1.4869499,4.7766781-1.4869499c4.0813828,0,7.1498528,2.941782,7.1498528,7.244421
		c0,4.6821098-3.4170113,7.7511749-8.6046848,7.7511749c-2.8472118,0-5.6313763-0.7601299-7.5608444-2.5313854l1.8033733-2.4671478
		c1.5499973,1.2966213,3.795887,1.7712555,5.5356178,1.7712555c2.9423771,0,5.1252213-1.6772804,5.1252213-4.4608498
		c0-2.7205238-2.088274-4.4287329-4.5554218-4.4287329c-1.4869499,0-3.4170113,0.6649637-4.5869427,1.7712545L21.626646,15.130909
		l0.6958923-11.0414963h13.2237453V7.2536421z"/>
</g>
</svg>
