<svg xmlns="http://www.w3.org/2000/svg" viewBox="0 0 27.25 46.85"><defs><style>.cls-1{fill:silver;}.cls-2{fill:none;opacity:0.35;}</style></defs><title>clips</title><g id="Layer_2" data-name="Layer 2"><g id="Layer_7" data-name="Layer 7"><path class="cls-1" d="M23.2,46.85H4a4.05,4.05,0,0,1-4-4V4A4.05,4.05,0,0,1,4,0H23.2a4.05,4.05,0,0,1,4,4V42.8A4.05,4.05,0,0,1,23.2,46.85ZM4,2A2.05,2.05,0,0,0,2,4V42.8a2.05,2.05,0,0,0,2,2H23.2a2,2,0,0,0,2-2V4a2,2,0,0,0-2-2Z"/><rect class="cls-1" x="2" y="6.38" width="23.13" height="2"/><rect class="cls-1" x="1" y="38.38" width="24.12" height="2"/><path class="cls-1" d="M13.62,27.53a4.1,4.1,0,1,1,4.1-4.1A4.11,4.11,0,0,1,13.62,27.53Zm0-6.2a2.1,2.1,0,1,0,2.1,2.1A2.1,2.1,0,0,0,13.62,21.32Z"/><rect class="cls-2" x="1" y="7.38" width="24.69" height="33.38"/></g></g></svg>