<svg xmlns="http://www.w3.org/2000/svg" viewBox="0 0 49.99 49.88"><defs><style>.cls-1{fill:silver;}</style></defs><title>day</title><g id="Layer_2" data-name="Layer 2"><g id="Layer_33" data-name="Layer 33"><path class="cls-1" d="M25,41a16.1,16.1,0,1,1,16.1-16.1A16.11,16.11,0,0,1,25,41Zm0-28.19a12.1,12.1,0,1,0,12.1,12.1A12.11,12.11,0,0,0,25,12.85Z"/><rect class="cls-1" x="6.57" y="7.31" width="4" height="5.69" transform="translate(-4.71 9.73) rotate(-48)"/><rect class="cls-1" x="39.42" y="36.88" width="4" height="5.69" transform="translate(-15.82 43.93) rotate(-48)"/><rect class="cls-1" x="0.07" y="23.71" width="5.92" height="4" transform="matrix(1, -0.03, 0.03, 1, -0.9, 0.12)"/><rect class="cls-1" x="44.47" y="22.17" width="5.46" height="4" transform="matrix(1, -0.03, 0.03, 1, -0.81, 1.66)"/><rect class="cls-1" x="6.8" y="38.84" width="5.69" height="4" transform="translate(-26.43 19.41) rotate(-46)"/><rect class="cls-1" x="37.7" y="6.96" width="5.46" height="4" transform="translate(5.9 31.82) rotate(-46)"/><rect class="cls-1" x="23" y="44.19" width="4" height="5.69"/><rect class="cls-1" x="23" width="4" height="5.69"/></g></g></svg>