<svg xmlns="http://www.w3.org/2000/svg" viewBox="0 0 43.14 42.15"><defs><style>.cls-1{fill:silver;}</style></defs><title>drops</title><g id="Layer_2" data-name="Layer 2"><g id="Layer_6" data-name="Layer 6"><path class="cls-1" d="M21.93,42.15A10,10,0,0,1,12,32.22c0-5.13,8.21-15.76,9.15-17l.79-1,.79,1c.94,1.19,9.15,11.82,9.15,17A10,10,0,0,1,21.93,42.15Zm0-24.62C19.16,21.23,14,28.81,14,32.22a7.93,7.93,0,0,0,15.87,0C29.87,28.81,24.71,21.23,21.93,17.53Z"/><path class="cls-1" d="M6.05,20A6.06,6.06,0,0,1,0,13.91c0-3,4.73-9.17,5.27-9.86l.79-1,.79,1c.54.69,5.27,6.81,5.27,9.86A6.06,6.06,0,0,1,6.05,20Zm0-13.64C4.24,8.8,2,12.37,2,13.91a4.05,4.05,0,1,0,8.11,0C10.11,12.36,7.87,8.8,6.05,6.33Z"/><path class="cls-1" d="M36.13,19.64a7,7,0,0,1-7-7C29.11,9.06,34.7,1.82,35.34,1l.79-1,.79,1c.64.81,6.23,8.05,6.23,11.62A7,7,0,0,1,36.13,19.64Zm0-16.37c-2.2,3-5,7.42-5,9.35a5,5,0,0,0,10,0C41.14,10.7,38.33,6.25,36.13,3.27Z"/></g></g></svg>