<svg xmlns="http://www.w3.org/2000/svg" viewBox="0 0 55.72 55.72"><defs><style>.cls-1{fill:silver;}</style></defs><title>locator</title><g id="Layer_2" data-name="Layer 2"><g id="triggers"><path class="cls-1" d="M27.86,51.85A23.47,23.47,0,1,1,51.33,28.38,23.5,23.5,0,0,1,27.86,51.85Zm0-44.94A21.47,21.47,0,1,0,49.33,28.38,21.5,21.5,0,0,0,27.86,6.91Z"/><path class="cls-1" d="M27.86,41.61A13.23,13.23,0,1,1,41.09,28.38,13.24,13.24,0,0,1,27.86,41.61Zm0-24.46A11.23,11.23,0,1,0,39.09,28.38,11.24,11.24,0,0,0,27.86,17.15Z"/><rect class="cls-1" x="26.86" width="2" height="22.25"/><rect class="cls-1" x="26.86" y="33.47" width="2" height="22.25"/><rect class="cls-1" y="26.86" width="22.25" height="2"/><rect class="cls-1" x="33.47" y="26.86" width="22.25" height="2"/></g></g></svg>