<svg xmlns="http://www.w3.org/2000/svg" viewBox="0 0 62.94 52.54"><defs><style>.cls-1{fill:silver;}</style></defs><title>refresh</title><g id="Layer_2" data-name="Layer 2"><g id="Layer_6" data-name="Layer 6"><path class="cls-1" d="M24.27,52.54A17.55,17.55,0,0,1,7,35.07H9.6A14.94,14.94,0,0,0,24.3,49.94Z"/><path class="cls-1" d="M39.47,52.54H24.28v-2.6H31.8a1.31,1.31,0,0,1,.34,0h7.33A14.93,14.93,0,0,0,54.36,35V27.64H57V35A17.53,17.53,0,0,1,39.47,52.54Z"/><polygon class="cls-1" points="48.38 33.28 55.66 26 62.94 33.28 48.38 33.28"/><path class="cls-1" d="M55.94,17.48h-2.6A14.94,14.94,0,0,0,38.64,2.6l0-2.6A17.55,17.55,0,0,1,55.94,17.48Z"/><path class="cls-1" d="M8.58,24.9H6V17.53A17.53,17.53,0,0,1,23.47,0H38.65V2.6H31.14a1.25,1.25,0,0,1-.34,0H23.47A14.93,14.93,0,0,0,8.58,17.53Z"/><polygon class="cls-1" points="14.56 19.26 7.28 26.55 0 19.26 14.56 19.26"/></g></g></svg>