<?xml version="1.0" encoding="utf-8"?>
<!-- Generator: Adobe Illustrator 21.1.0, SVG Export Plug-In . SVG Version: 6.00 Build 0)  -->
<svg version="1.1" id="Layer_1" xmlns="http://www.w3.org/2000/svg" xmlns:xlink="http://www.w3.org/1999/xlink" x="0px" y="0px"
	 viewBox="0 0 352.5 74.4" style="enable-background:new 0 0 352.5 74.4;" xml:space="preserve">
<style type="text/css">
	.st0{fill:#62BB46;}
	.st1{fill:#4E5156;}
</style>
<g id="logo_3_">
	<g>
		<g>
			<path class="st0" d="M16.5,50h-4v0v0h-4C3.8,50,0,53.8,0,58.5v7.9c0,4.7,3.8,8.5,8.4,8.5h4.1v0v0h3.9c4.7,0,8.5-3.8,8.5-8.5v-7.9
				C24.9,53.8,21.2,50,16.5,50z"/>
			<path class="st0" d="M57.9,24.9h0.6h2.5h5.4c4.7,0,8.6-3.8,8.6-8.6V8.4c0-2.3-0.9-4.4-2.5-6C71,0.9,68.9,0,66.5,0h-7.9
				c-4.7,0-8.6,3.8-8.6,8.6v8.3c-0.2,4.4-3.8,7.9-8.1,8.2c0,0,0,0,0,0c-0.2,0-0.4-0.1-0.6-0.1h-7.9c-2.3,0-4.4,0.9-6,2.4
				c-1.5,1.6-2.4,3.7-2.4,6v0.2c0,0,0,0.1,0,0.1v8c0,2.3,0.9,4.4,2.4,6c1.5,1.5,3.6,2.4,6,2.4h7.9c0.2,0,0.4,0,0.5-0.1c0,0,0,0,0,0
				c4.3,0.2,7.8,3.7,8.1,8v0.6V61v5.4c0,4.7,3.8,8.6,8.6,8.6h7.9c2.3,0,4.4-0.9,6-2.4c1.5-1.5,2.4-3.7,2.4-6v-7.9
				c0-4.7-3.8-8.6-8.6-8.6h-8.3c-4.4-0.2-7.9-3.8-8.2-8.1c0,0-0.1,0-0.1-0.1v-0.3c0,0,0-0.1,0-0.1v0c0,0,0,0,0,0v-8.3
				c0,0,0,0,0.1-0.1C50.2,28.8,53.7,25.3,57.9,24.9z"/>
		</g>
		<g>
			<g>
				<ellipse class="st1" cx="316" cy="18.8" rx="3.4" ry="3.5"/>
				<g>
					<path class="st1" d="M114.6,42.8c-1.2-1.9-2.2-3-3.1-3.6c0.6-0.4,1.5-1.2,3-3.3l6.3-10c0.3-0.4,0-1-0.6-1h-5.3
						c-0.5,0-0.9,0.3-1.2,0.6l-5.2,8.2c-1.2,1.9-1.8,2.6-3.7,2.6h-6.9V17.7c0-0.5-0.4-0.9-0.9-0.9h-4.3c-0.5,0-0.9,0.4-0.9,0.9v35.6
						c0,0.5,0.4,0.9,0.9,0.9H97c0.5,0,0.9-0.4,0.9-0.9v-11h7.1c1.8,0,2.4,0.7,3.7,2.6l5.7,8.7c0.3,0.4,0.7,0.6,1.2,0.6h5.3
						c0.5,0,0.9-0.6,0.6-1L114.6,42.8z"/>
					<path class="st1" d="M338.6,24.6c-9.3,0-15.4,7-15.5,14.9v0.3c0.1,7.7,6.1,14.8,15.5,14.8c8.3,0,14.9-6.6,15-14.9v-0.3
						C353.5,31.3,346.9,24.6,338.6,24.6z M338.6,30.6c4.8,0,8.8,3.7,8.8,9.1c-0.1,5.1-4,8.9-8.8,8.9c-5.7,0-9.2-4.1-9.3-8.9
						C329.3,34.8,332.8,30.6,338.6,30.6z"/>
					<path class="st1" d="M181.6,29.1c-3.1-3.1-6.8-4.4-11.2-4.4c-3.7,0-7.5,1.5-10.4,4.4c-2.8,2.8-4.4,6.5-4.4,10.5v13.7
						c0,0.5,0.4,0.9,0.9,0.9h4.3c0.5,0,1-0.4,1-0.9V39.7c0-0.8,0-3.9,2.6-6.5c1.6-1.6,3.7-2.6,6.4-2.6c2.6,0,4.8,0.9,6.4,2.6
						c2.6,2.6,2.6,5.5,2.6,6.5v13.6c0,0.5,0.4,0.9,1,0.9h4.3c0.5,0,1-0.4,1-0.9V39.6C185.9,35.4,184.3,31.9,181.6,29.1z"/>
					<circle class="st1" cx="304.8" cy="51.4" r="3.4"/>
					<path class="st1" d="M209,48.4h-4.1c-2.5,0-4.6-2-4.6-4.6V30.7h8.9c0.6,0,1.1-0.5,1.1-1.1v-3.5c0-0.6-0.5-1.1-1.1-1.1h-9v-7.2
						c0-0.6-0.5-1.1-1.1-1.1h-4.1c-0.6,0-1.1,0.5-1.1,1.1V25h-5.6c-0.6,0-1.1,0.5-1.1,1.1v3.5c0,0.6,0.5,1.1,1.1,1.1h5.6V43
						c0,6.3,5.1,11.3,11.3,11.3h3.9c0.6,0,1.1-0.5,1.1-1.1v-3.6C210.1,48.9,209.6,48.4,209,48.4z"/>
					<path class="st1" d="M297,30.7c0.6,0,1.1-0.5,1.1-1.1V26c0-0.6-0.5-1.1-1.1-1.1h-9v-7.1c0-0.6-0.5-1.1-1.1-1.1h-4.2
						c-0.6,0-1.1,0.5-1.1,1.1v7.1c-18.9,0,15.5,0-10.2,0c-0.5,0-0.9,0.2-1.2,0.6l-5.4,8.2c-1.2,1.9-1.8,2.6-3.7,2.6h-6.9V17.6
						c0-0.5-0.4-0.9-0.9-0.9h-4.3c-0.5,0-0.9,0.4-0.9,0.9v35.6c0,0.5,0.4,0.9,0.9,0.9h4.3c0.5,0,0.9-0.4,0.9-0.9V42.3h7.1
						c1.8,0,2.4,0.7,3.7,2.6l5.7,8.6c0.3,0.4,0.7,0.7,1.2,0.7h5.3c0.5,0,0.8-0.6,0.6-1l-6.8-10.3c-1.2-1.9-2.2-3-3.1-3.6
						c0.6-0.4,1.5-1.2,3-3.3l3.4-5.2h7.4V43c0,6.2,5.1,11.3,11.3,11.3h3.9c0.6,0,1.1-0.5,1.1-1.1v-3.7c0-0.6-0.5-1.1-1.1-1.1h-4.1
						c-2.5,0-4.6-2-4.6-4.6V30.7H297z"/>
					<path class="st1" d="M319.1,25.9c0-0.5-0.4-0.9-0.9-0.9h-4.3c-0.5,0-0.9,0.4-0.9,0.9v27.4c0,0.5,0.4,0.9,0.9,0.9h4.3
						c0.5,0,0.9-0.4,0.9-0.9V25.9z"/>
					<path class="st1" d="M227.9,24.4c-4,0-7.8,1.6-10.6,4.4c-2.8,2.8-4.4,6.5-4.4,10.8c0.1,3.9,1.6,7.6,4.4,10.4
						c2.8,2.8,6.6,4.4,10.6,4.4c4.2,0,8.1-2,9.8-4l0.5,2.6c0,0.5,0.4,0.9,0.9,0.9h3.5c0.5,0,0.9-0.4,0.9-0.9V41.2
						C243.6,29.6,236.7,24.4,227.9,24.4z M227.9,48.5c-4.9,0-8.7-3.9-8.8-8.9c0-4.9,3.4-9.1,9-9.1c5.7,0.1,9.1,3.9,9.1,8.8
						C237.3,44.9,233.5,48.5,227.9,48.5z"/>
					<path class="st1" d="M137.2,24.6c-9.3,0-15.4,7-15.5,14.9v0.3c0.1,7.7,6.1,14.8,15.5,14.8c8.3,0,14.9-6.6,15-14.9v-0.3
						C152.1,31.3,145.5,24.6,137.2,24.6z M137.2,30.6c4.8,0,8.8,3.7,8.8,9.1c-0.1,5.1-4,8.9-8.8,8.9c-5.7,0-9.2-4.1-9.3-8.9
						C128,34.8,131.4,30.6,137.2,30.6z"/>
				</g>
			</g>
		</g>
	</g>
</g>
</svg>
